<svg xmlns="http://www.w3.org/2000/svg" xmlns:xlink="http://www.w3.org/1999/xlink" width="636" height="390" viewBox="0 0 636 390">
    <defs>
        <rect id="b" width="550.559" height="111.348" rx="12"/>
        <filter id="a" width="130%" height="248.2%" x="-15%" y="-41.8%" filterUnits="objectBoundingBox">
            <feOffset dy="36" in="SourceAlpha" result="shadowOffsetOuter1"/>
            <feGaussianBlur in="shadowOffsetOuter1" result="shadowBlurOuter1" stdDeviation="21.5"/>
            <feColorMatrix in="shadowBlurOuter1" values="0 0 0 0 0 0 0 0 0 0 0 0 0 0 0 0 0 0 0.201115263 0"/>
        </filter>
        <linearGradient id="c" x1="100%" x2="0%" y1="50%" y2="50%">
            <stop offset="0%" stop-color="#20D2DC"/>
            <stop offset="100%" stop-color="#70AFF9"/>
        </linearGradient>
        <rect id="e" width="550.559" height="111.348" rx="12"/>
        <filter id="d" width="130%" height="248.2%" x="-15%" y="-41.8%" filterUnits="objectBoundingBox">
            <feOffset dy="36" in="SourceAlpha" result="shadowOffsetOuter1"/>
            <feGaussianBlur in="shadowOffsetOuter1" result="shadowBlurOuter1" stdDeviation="21.5"/>
            <feColorMatrix in="shadowBlurOuter1" values="0 0 0 0 0 0 0 0 0 0 0 0 0 0 0 0 0 0 0.201115263 0"/>
        </filter>
        <linearGradient id="f" x1="0%" y1="50%" y2="50%">
            <stop offset="0%" stop-color="#FF5480"/>
            <stop offset="100%" stop-color="#FFB4A7"/>
        </linearGradient>
        <path id="g" d="M.532.428h79.043v192.796H.532z"/>
    </defs>
    <g fill="none" fill-rule="evenodd">
        <g transform="translate(42.804 59.772)">
            <g opacity=".096">
                <use fill="#000" filter="url(#a)" xlink:href="#b"/>
                <use fill="#FFF" xlink:href="#b"/>
            </g>
            <rect width="142.5" height="8" x="92.5" y="40" fill="#603CCB" rx="4"/>
            <rect width="85.09" height="8" x="92.5" y="58" fill="#603CCB" rx="4"/>
            <rect width="85.09" height="8" x="272.5" y="58" fill="#603CCB" rx="4"/>
            <rect width="85.09" height="8" x="272.5" y="40" fill="#603CCB" rx="4"/>
            <rect width="85.09" height="8" x="422.5" y="58" fill="#603CCB" rx="4"/>
            <rect width="85.09" height="8" x="422.5" y="40" fill="#603CCB" rx="4"/>
            <rect width="41" height="41" x="36" y="40" fill="url(#c)" opacity=".275" rx="6"/>
        </g>
        <g transform="translate(42.804 199.772)">
            <g opacity=".096">
                <use fill="#000" filter="url(#d)" xlink:href="#e"/>
                <use fill="#FFF" xlink:href="#e"/>
            </g>
            <rect width="142.5" height="8" x="92.5" y="40" fill="#603CCB" rx="4"/>
            <rect width="85.09" height="8" x="92.5" y="58" fill="#603CCB" rx="4"/>
            <rect width="85.09" height="8" x="272.5" y="58" fill="#603CCB" rx="4"/>
            <rect width="85.09" height="8" x="272.5" y="40" fill="#603CCB" rx="4"/>
            <rect width="85.09" height="8" x="422.5" y="58" fill="#603CCB" rx="4"/>
            <rect width="85.09" height="8" x="422.5" y="40" fill="#603CCB" rx="4"/>
            <rect width="41" height="41" x="36" y="40" fill="url(#f)" fill-opacity=".27" rx="6"/>
        </g>
        <g transform="translate(411)">
            <rect width="142.5" height="8" x=".304" y="364.245" fill="#724ECC" rx="4"/>
            <rect width="142.5" height="8" x="40.304" y="344.245" fill="#724ECC" rx="4"/>
            <g transform="translate(52.128 179.388)">
                <mask id="h" fill="#fff">
                    <use xlink:href="#g"/>
                </mask>
                <path fill="#01090B" d="M3.095.428c1.492 10.447 2.122 28.739 8.809 56.08a129.494 129.494 0 0 1 3.07 17.778c2.064 20.396 5.93 67.166 2.177 100.945-.49 4.422-14.182 7.12-15.634 8.157s-1.038 3.735-.415 3.94c.622.209 15.972 2.699 20.744 0 4.77-2.695 2.696-5.129 6.016-6.3 3.317-1.166 2.903 3.812 2.903 3.812s4.148.83 6.43-.207c0 0 5.467-122.54 4.638-141.001 0 0 6.978 61.968 8.223 99.514 1.245 37.545 2.636 40.527-13.067 45.43-3.32 1.035-2.697 4.146-1.66 4.355 1.036.207 22.73 2.006 24.892-6.639.829-3.32 4.355-1.659 4.355-1.659v3.526s1.868 2.489 8.09.416c0 0 1.899-40.762 1.657-58.285-.244-17.523 8.173-96.331 4.17-129.862" mask="url(#h)"/>
            </g>
            <path fill="#FFF" d="M176.258 222.843c-.49-3.789-3.154-6.538-6.335-6.538H153.436c-3.179 0-5.842 2.75-6.336 6.538l-1.065 8.208 3.856.728 1.065-8.207c.195-1.484 1.236-2.558 2.48-2.558h16.488c1.244 0 2.287 1.074 2.48 2.557l1.065 8.208 3.856-.728-1.067-8.208z"/>
            <path fill="#4519C8" d="M125.89 230.363h67.536a3.184 3.184 0 0 1 3.184 3.184v16.597h-73.905v-16.597a3.185 3.185 0 0 1 3.184-3.184"/>
            <path fill="#4519C8" d="M127.481 284.479h64.353a4.775 4.775 0 0 0 4.776-4.776v-29.559h-73.905v29.559a4.776 4.776 0 0 0 4.776 4.776"/>
            <path fill="#FFF" d="M162.368 257.95h-5.42a1.593 1.593 0 0 1-1.592-1.593v-11.27c0-.88.714-1.591 1.592-1.591h5.42c.878 0 1.592.711 1.592 1.592v11.27c0 .878-.714 1.591-1.592 1.591"/>
            <path fill="#FFD223" d="M131.372 101.298c11.833 14.31 22.982 105.193 22.982 105.193h15.259c0-26.88-2.92-74.848-6.989-102.315-4.07-27.466-27.065-46.475-43.745-50.963L100 47.247l-16.341 9.822-8.194-1.062-2.42-4.882s-6.791-2.949-11.462 1.498c-4.67 4.446-6.625 22.058-6.625 22.058-1.06 8.806-2.295 26.845-2.563 30.823-.028.427-.048.845-.046 1.274.029 8.59-3.588 60.96.204 70.95 2.95 7.774 11.902 7.212 16.846 7.452 4.944.24 53.36 1.185 56.968.287 3.684-.917 6.056-.82 6.755-2.85 2.032-5.898-4.067-39.911-3.37-54.543.384-8.022 1.323-22.3 1.62-26.776"/>
            <path fill="#FFF" d="M123.211 251.457h72.894v-1.114h-72.894z"/>
            <path fill="#FFB200" d="M168.385 206.088l2.119 10.907a4.02 4.02 0 0 1-4.149 4.657l-10.096-.448a.937.937 0 0 1-.885-1.057l.512-3.843-2.921.02 1.906-10.998 13.514.762z"/>
            <path fill="#FFF" d="M80.23 56.996l3.978 7.019a.893.893 0 0 0 1.383.224c2.977-2.738 13.015-12.105 14.126-14.972 1.304-3.374-1.323-5.085-1.323-5.085S85.685 55.47 80.23 56.996M72.97 48.29s4.086 8.439 5.673 8.572c0 0-2.975 2.993-4.434 5.357-.296.48-1.01.395-1.155-.15-.868-3.276-2.466-10.713-.083-13.78"/>
            <path fill="#013344" d="M94.205 43.574a4.865 4.865 0 0 0 6.688-.9c2.993-3.772 7.34-9.343 8.293-11.076 1.485-2.704 2.837-7.03 0-8.38 0 0 2.297-8.513-3.513-12.027-5.813-3.513-11.082-.947-13.65-7.162C89.455-2.188 85.67.786 85.13 2.273c-.541 1.485-1.216 4.728 0 6.486 1.215 1.756 7.298 33.516 7.298 33.516l1.776 1.3z"/>
            <path fill="#FFB200" d="M97.176 30.114c-1.756-1.538-3.731.657-3.731.657-1.097-5.268 2.195-9.877 2.195-9.877l5.926-.437c-2.634-7.026-10.535-7.902-10.535-7.902-3.951-.878-5.707-5.267-5.707-5.267-4.39-.44-14.266 12.29-14.266 12.29s-10.096-1.317-7.23 1.097c.053.046.095.106.147.154 1.358.888 3.853 2.72 4.346 4 0 0-.673 4.156-3.687 6.362-3.784 3.665-1.671 7.901 1.323 9.896 3.293 2.194 6.147 3.796 7.013 7.202 0 0 3.23 8.74 6.09 8.997 4.05.363 19.111-12.908 19.111-12.908-5.013-1.756-4.944-5.763-4.944-5.763 5.705-.717 5.705-6.965 3.95-8.501"/>
            <path fill="#013344" d="M94.075 29.3l-11.173-8.773c1.358-2.132 1.556-4.411.357-5.378-1.18-.949-3.318-.305-5.095 1.414l-1.927-1.673c1.507-2.003 1.818-4.31.66-5.241-1.199-.966-3.509-.086-5.16 1.963-1.649 2.049-2.015 4.493-.815 5.457 1.116.901 3.19.188 4.804-1.568l1.899 1.648c-.075.089-.158.165-.233.258-1.883 2.34-2.31 5.121-.953 6.215 1.356 1.09 3.983.08 5.866-2.258.05-.062.088-.125.134-.189l11.144 8.753.492-.627z"/>
        </g>
    </g>
</svg>
