<svg xmlns="http://www.w3.org/2000/svg" xmlns:xlink="http://www.w3.org/1999/xlink" width="243" height="19" viewBox="0 0 243 19">
    <defs>
        <path id="a" d="M.001.532h18.038V19H.001z"/>
    </defs>
    <g fill="none" fill-rule="evenodd">
        <g transform="translate(.804 -.531)">
            <mask id="b" fill="#fff">
                <use xlink:href="#a"/>
            </mask>
            <path fill="#FFD223" d="M15.087 2.378a7.641 7.641 0 0 1 1.92 2.182c.512.864.856 1.83 1.032 2.904l-4.846.454c-.256-1.118-.728-1.948-1.416-2.482-.688-.536-1.56-.802-2.614-.802-.688 0-1.304.122-1.848.37a4.001 4.001 0 0 0-1.39 1.044c-.384.446-.68.988-.888 1.618a6.698 6.698 0 0 0-.312 2.1c0 .848.116 1.59.348 2.23.232.638.544 1.176.936 1.608.392.432.86.756 1.404.97a4.647 4.647 0 0 0 1.75.324c1.04 0 1.916-.27 2.626-.816.712-.542 1.18-1.366 1.404-2.47l4.846.408c-.176 1.088-.52 2.062-1.032 2.928a7.79 7.79 0 0 1-1.92 2.192 8.42 8.42 0 0 1-2.626 1.38c-.984.32-2.028.48-3.13.48-1.344 0-2.586-.21-3.73-.634-1.144-.424-2.128-1.032-2.95-1.824-.824-.792-1.472-1.758-1.944-2.904-.472-1.142-.706-2.432-.706-3.872s.234-2.73.706-3.876c.472-1.142 1.12-2.108 1.944-2.902.822-.79 1.806-1.398 2.95-1.822C6.745.742 7.987.532 9.331.532c1.102 0 2.146.158 3.13.478.984.32 1.86.776 2.626 1.368z" mask="url(#b)"/>
        </g>
        <path fill="#FFD223" d="M26.05 7.05h6.091v4.007H26.05v3.046h7.148v4.102H21.42V.263h11.754v4.102H26.05zM44.91 7.604c.32-.336.48-.792.48-1.368 0-.576-.16-1.03-.48-1.366-.32-.336-.767-.504-1.343-.504H40.64v3.742h2.926c.576 0 1.024-.168 1.344-.504zm-4.27 4.606v5.996h-4.63V.264h8.109c.912 0 1.736.134 2.47.406a5.256 5.256 0 0 1 1.884 1.176c.52.512.92 1.136 1.198 1.872.282.736.42 1.576.42 2.518 0 1.216-.23 2.262-.694 3.142a4.88 4.88 0 0 1-1.992 2.038l3.622 6.79h-5.228l-3.19-5.996H40.64zM60.438 4.365h-7.124V.263h11.754v17.942H53.29v-4.102h7.148v-3.046h-6.092V7.051h6.092zM74.407 4.365c-.56 0-1 .122-1.32.36-.318.24-.478.632-.478 1.176 0 .542.16.938.478 1.186.32.248.768.372 1.344.372h3.262V4.365h-3.286zm.504 7.028c-.496 0-.888.108-1.176.324-.286.216-.432.556-.432 1.02 0 .496.142.846.42 1.056.28.206.66.31 1.14.31h2.83v-2.71H74.91zm-2.878 6.502c-.704-.21-1.312-.52-1.824-.936a4.248 4.248 0 0 1-1.198-1.584c-.288-.638-.432-1.398-.432-2.28 0-.782.148-1.444.444-1.99.296-.542.634-1 1.018-1.366-.558-.288-1.058-.776-1.498-1.464-.44-.688-.66-1.558-.66-2.616 0-.862.144-1.63.432-2.302a4.668 4.668 0 0 1 1.212-1.692c.518-.454 1.146-.802 1.882-1.042s1.55-.36 2.446-.36h8.468v17.942h-7.988a8.162 8.162 0 0 1-2.302-.31zM92.047 8.107h2.926V4.365h-2.926c-.576 0-1.024.168-1.344.504-.32.336-.48.79-.48 1.366 0 .576.16 1.032.48 1.368.32.336.768.504 1.344.504zm.958 4.102l-3.19 5.996h-5.228l3.622-6.79a4.88 4.88 0 0 1-1.992-2.038c-.462-.88-.694-1.926-.694-3.142 0-.942.14-1.782.42-2.518a5.132 5.132 0 0 1 1.198-1.872A5.256 5.256 0 0 1 89.025.67c.734-.27 1.558-.406 2.47-.406h8.108l-.002 17.942h-4.63V12.21h-1.966zM107.887 5.469c-.864.91-1.294 2.166-1.294 3.766s.43 2.854 1.294 3.766c.864.912 2.032 1.366 3.502 1.366 1.456 0 2.61-.454 3.466-1.366.856-.912 1.282-2.166 1.282-3.766s-.426-2.856-1.282-3.766C114 4.557 112.845 4.1 111.39 4.1c-1.47 0-2.638.456-3.502 1.368m7.304-4.81a8.844 8.844 0 0 1 2.998 1.858c.84.8 1.496 1.768 1.968 2.904.472 1.134.706 2.406.706 3.814 0 1.406-.234 2.678-.706 3.814a8.546 8.546 0 0 1-1.968 2.914c-.84.806-1.84 1.426-2.998 1.86-1.16.432-2.428.646-3.802.646-1.392 0-2.67-.214-3.838-.646-1.166-.434-2.17-1.054-3.01-1.86a8.546 8.546 0 0 1-1.968-2.914c-.472-1.136-.706-2.408-.706-3.814 0-1.408.234-2.68.706-3.814a8.409 8.409 0 0 1 1.968-2.904c.84-.798 1.844-1.42 3.01-1.858C108.72.219 109.997 0 111.39 0c1.374 0 2.642.218 3.802.658"/>
        <g>
            <path fill="#F9F9F9" d="M142.935 9.498c0 2.652-2.148 2.664-4.716 2.664v3.468h-1.104V6.714c.576 0 1.152-.012 1.704-.012 2.244 0 4.104.132 4.116 2.796zm-1.116 0c-.012-1.752-1.02-1.8-3.012-1.8h-.588v3.492h.36c2.148 0 3.24-.048 3.24-1.692zm7.584 3.312c0 1.92-.96 2.988-2.82 2.988-1.848 0-2.808-1.068-2.808-2.988v-.96c0-1.92.96-2.988 2.808-2.988 1.86 0 2.82 1.068 2.82 2.988v.96zm-1.08 0v-.96c0-1.428-.528-2.04-1.74-2.04-1.188 0-1.728.612-1.728 2.04v.96c0 1.428.528 2.04 1.728 2.04 1.212 0 1.74-.612 1.74-2.04zm11.112-3.78l-1.488 6.6h-1.524l-1.224-3.96a15.36 15.36 0 0 1-.36-1.332h-.048c-.06.288-.168.708-.36 1.332l-1.224 3.96h-1.524l-1.5-6.6h1.104l.876 4.08c.12.576.228 1.152.264 1.704h.06c.168-.588.3-1.176.456-1.692l1.092-3.552h1.56l1.092 3.552c.156.516.288 1.104.456 1.692h.06c.036-.552.144-1.128.264-1.704l.876-4.08h1.092zm6.408 3.696h-4.548v.132c0 1.14.168 2.004 1.992 2.004.732 0 1.68-.084 2.304-.192v.864c-.456.12-1.26.264-2.352.264-2.34 0-3.024-1.044-3.024-3.18v-.504c0-2.076.924-3.252 2.796-3.252 1.944 0 2.832 1.164 2.832 3.384v.48zm-1.116-.888v-.12c0-.804-.168-1.92-1.704-1.92-1.512 0-1.716 1.116-1.716 1.92v.12h3.42zm6.108-2.016c-.864 0-1.836.24-2.34.564v5.244h-1.068v-6.6h1.056v.528c.624-.492 1.428-.696 2.352-.696v.96zm6.288 2.904h-4.548v.132c0 1.14.168 2.004 1.992 2.004.732 0 1.68-.084 2.304-.192v.864c-.456.12-1.26.264-2.352.264-2.34 0-3.024-1.044-3.024-3.18v-.504c0-2.076.924-3.252 2.796-3.252 1.944 0 2.832 1.164 2.832 3.384v.48zm-1.116-.888v-.12c0-.804-.168-1.92-1.704-1.92-1.512 0-1.716 1.116-1.716 1.92v.12h3.42zm7.788 3.792h-1.044v-.336a3.63 3.63 0 0 1-1.848.504c-1.548 0-2.46-.876-2.46-2.82v-1.14c0-2.364 1.188-2.976 2.724-2.976.528 0 1.02.06 1.548.168V6.342h1.08v9.288zm-1.08-1.164V9.93a9.52 9.52 0 0 0-1.476-.156c-1.068 0-1.716.3-1.716 2.064v1.14c0 1.308.48 1.896 1.584 1.896.588 0 1.116-.168 1.608-.408zm10.572-1.692c0 2.112-.972 3.024-2.928 3.024-.816 0-1.32-.048-2.424-.168V6.342h1.08v2.94a3.738 3.738 0 0 1 1.776-.444c1.704 0 2.496.9 2.496 2.808v1.128zm-1.08-.012v-1.128c0-1.332-.42-1.848-1.548-1.848-.336 0-1.14.06-1.644.348v4.644c.3.024.78.06 1.368.06 1.236 0 1.824-.504 1.824-2.076zm7.608-3.732l-2.508 7.188c-.444 1.272-.864 2.088-2.22 2.088a6.77 6.77 0 0 1-1.284-.12v-.828c.516.036.816.048 1.248.048.648 0 .828-.336 1.188-1.296l.18-.48-2.556-6.6h1.188l1.344 3.708c.204.588.336 1.044.552 1.752.168-.708.3-1.152.504-1.764l1.212-3.696h1.152zm10.716 6.6h-1.728l-.312-2.508h-2.868l-1.248 2.508h-1.74l4.26-8.916h2.508l1.128 8.916zm-2.136-3.876l-.3-2.46c-.06-.456-.072-.924-.06-1.416h-.108c-.18.492-.36.96-.576 1.416l-1.176 2.46h2.22zM219.7 9.606a7.382 7.382 0 0 1-.12 1.2l-.216 1.14c-.492 2.604-1.824 3.756-4.788 3.756a53.54 53.54 0 0 1-2.784-.072l1.572-8.916a51.41 51.41 0 0 1 2.664-.072c2.748 0 3.672 1.068 3.672 2.964zm-1.668-.06c0-1.476-1.044-1.488-3.24-1.488l-1.128 6.24h1.116c1.704 0 2.544-.528 2.94-2.58l.216-1.128c.084-.432.084-.768.096-1.044zm9.516-2.772l-.228 1.32a26.89 26.89 0 0 0-2.1-.108c-1.524 0-2.316.54-2.7 2.58l-.228 1.212a5.785 5.785 0 0 0-.108 1.008c0 1.224.648 1.584 1.872 1.584.696 0 1.56-.048 2.136-.096l-.204 1.32c-.42.084-1.512.228-2.28.228-1.944 0-3.204-.744-3.204-2.904 0-.396.024-.84.12-1.332l.228-1.2c.6-3.18 2.196-3.84 4.488-3.84.78 0 1.812.132 2.208.228zm6.96 8.856h-1.728l-.312-2.508H229.6l-1.248 2.508h-1.74l4.26-8.916h2.508l1.128 8.916zm-2.136-3.876l-.3-2.46c-.06-.456-.072-.924-.06-1.416h-.108c-.18.492-.36.96-.576 1.416l-1.176 2.46h2.22zm9.924-5.04l-.228 1.38h-2.664l-1.344 7.536h-1.68l1.344-7.536h-2.664l.228-1.38h7.008z"/>
            <path stroke="#FFF" d="M129.095 6.822v8.979"/>
        </g>
    </g>
</svg>
